#!OML:ASF Y:\EmotionMaleHayes\Project 1\Capture day 1\Session 1\Male1.ASF
:FULLY-SPECIFIED
:DEGREES
176
root 14.8845 17.4324 -1.59926 -14.3092 77.3428 -18.2158
lowerback 16.3331 7.04299 6.46436
upperback 0.498988 10.6756 1.1305
thorax -7.57468 4.97956 -4.68771
lowerneck -30.7515 -0.734186 2.04967
upperneck 20.6648 -1.00833 -3.26628
head 11.7718 -0.743194 -1.75616
rclavicle 6.58971e-014 1.98785e-014
rhumerus -21.6248 19.1617 -88.4031
rradius 114.658
rwrist -20.0467
rhand -29.5717 -15.7551
rfingers 7.12502
rthumb -2.90383 -45.7151
lclavicle 6.58971e-014 1.98785e-014
lhumerus -98.6866 -18.0144 106.284
lradius 97.9049
lwrist 25.3884
lhand -36.6442 -30.9293
lfingers 7.12502
lthumb -9.73139 -1.17415
rfemur 20.4691 4.12411 21.8302
rtibia 16.073
rfoot -177.791 -178.53
rtoes 14.4769
lfemur -41.1965 12.598 -15.029
ltibia 73.9209
lfoot -188.644 188.395
ltoes -10.2087
177
root 15.4116 17.5654 -1.63614 -15.0444 77.2966 -19.0078
lowerback 15.9265 7.2114 6.97804
upperback 0.422039 10.9498 0.990876
thorax -7.28063 5.1097 -5.09286
lowerneck -31.0344 -1.09236 1.82864
upperneck 21.3761 -1.43027 -3.14728
head 12.087 -0.929947 -1.76991
rclavicle -2.67365e-014 7.95139e-016
rhumerus -21.9759 19.5454 -88.1942
rradius 115.695
rwrist -20.899
rhand -29.8502 -15.7459
rfingers 7.12502
rthumb -3.1728 -45.702
lclavicle -2.67365e-014 7.95139e-016
lhumerus -100.179 -18.1065 106.393
lradius 98.7412
lwrist 25.6005
lhand -36.5561 -30.8108
lfingers 7.12502
lthumb -9.64638 -1.05167
rfemur 22.0357 3.29637 20.5639
rtibia 14.7568
rfoot -173.146 -179.217
rtoes 21.1683
lfemur -40.3904 12.0008 -14.8419
ltibia 68.2319
lfoot -188.147 189.156
ltoes -6.73501
178
root 15.9287 17.6844 -1.66739 -16.1724 77.4736 -20.1779
lowerback 15.6824 7.27982 7.44539
upperback 0.265479 11.0999 0.859834
thorax -7.18414 5.16692 -5.4732
lowerneck -31.1763 -1.45397 1.42088
upperneck 22.0451 -1.85149 -2.75744
head 12.3712 -1.09086 -1.64787
rclavicle -4.52235e-014 3.89618e-014
rhumerus -22.635 19.9007 -88.0904
rradius 116.774
rwrist -21.2573
rhand -29.7246 -15.5848
rfingers 7.12502
rthumb -3.05154 -45.5427
lclavicle -4.52235e-014 3.89618e-014
lhumerus -101.46 -18.2401 106.44
lradius 99.4651
lwrist 25.752
lhand -36.375 -31.0082
lfingers 7.12502
lthumb -9.47163 -1.24105
rfemur 23.5221 2.54723 19.5359
rtibia 13.8343
rfoot -171.239 -179.29
rtoes 21.4735
lfemur -39.402 11.2686 -14.6318
ltibia 62.3438
lfoot -187.321 189.468
ltoes -5.23172
179
root 16.4562 17.7925 -1.69969 -16.048 77.3945 -20.1169
lowerback 15.1351 7.51788 7.65978
upperback 0.283684 11.3901 0.726324
thorax -6.75438 5.32997 -5.67549
lowerneck -31.3759 -1.89 0.824456
upperneck 22.5261 -2.34047 -2.21711
head 12.6014 -1.27658 -1.44724
rclavicle 4.77083e-015 2.14687e-014
rhumerus -23.138 20.0557 -87.7506
rradius 117.857
rwrist -21.3505
rhand -29.3411 -15.7726
rfingers 7.12502
rthumb -2.6811 -45.7355
lclavicle 4.77083e-015 2.14687e-014
lhumerus -102.35 -18.5876 106.549
lradius 100.194
lwrist 25.8203
lhand -36.2085 -31.0188
lfingers 7.12502
lthumb -9.31098 -1.2444
rfemur 24.6464 2.3746 18.4926
rtibia 13.8108
rfoot -170.499 -179.238
rtoes 20.9673
lfemur -38.2395 10.7873 -14.5842
ltibia 56.3148
lfoot -186.33 189.545
ltoes -6.40945
180
root 16.969 17.888 -1.72239 -15.5111 77.5236 -19.6588
lowerback 14.6296 7.70798 7.582
upperback 0.303296 11.5727 0.620925
thorax -6.42099 5.44446 -5.68295
lowerneck -31.6 -2.34168 0.252691
upperneck 23.0044 -2.81247 -1.84504
head 12.8407 -1.4762 -1.31341
rclavicle 2.75317e-014 -3.18055e-014
rhumerus -23.6784 20.4303 -87.3494
rradius 119.019
rwrist -22.1064
rhand -28.7544 -15.0937
rfingers 7.12502
rthumb -2.1145 -45.063
lclavicle 2.75317e-014 -3.18055e-014
lhumerus -103.051 -18.8971 106.685
lradius 100.859
lwrist 25.7366
lhand -36.023 -30.8872
lfingers 7.12502
lthumb -9.13197 -1.10486
rfemur 25.4711 2.85767 18.0697
rtibia 14.627
rfoot -171.503 -180.174
rtoes 20.0187
lfemur -37.1174 10.2461 -14.6745
ltibia 50.4388
lfoot -185.375 189.206
ltoes -6.02763
181
root 17.4794 17.9679 -1.73987 -15.7174 77.6116 -20.0166
lowerback 14.1844 7.87805 7.63623
upperback 0.190555 11.7644 0.51603
thorax -6.23722 5.54535 -5.78032
lowerneck -31.6201 -2.77149 -0.199675
upperneck 23.5136 -3.30654 -1.49074
head 13.0603 -1.67509 -1.20779
rclavicle 6.9674e-014 -5.80451e-014
rhumerus -24.718 20.6802 -87.2754
rradius 120.229
rwrist -22.3651
rhand -28.2447 -14.6197
rfingers 7.12502
rthumb -1.62226 -44.5933
lclavicle 6.9674e-014 -5.80451e-014
lhumerus -103.725 -19.2512 106.724
lradius 101.457
lwrist 25.5793
lhand -35.9078 -30.9496
lfingers 7.12502
lthumb -9.02087 -1.1625
rfemur 25.9158 3.84472 18.4554
rtibia 16.2471
rfoot -173.388 -182
rtoes 19.2709
lfemur -35.9437 9.83097 -14.571
ltibia 44.6105
lfoot -184.361 188.986
ltoes -6.6983
182
root 17.9882 18.0365 -1.74958 -16.5634 77.6012 -20.9637
lowerback 13.7445 8.03671 7.64128
upperback 0.159677 11.9384 0.51665
thorax -6.00253 5.64651 -5.73101
lowerneck -31.718 -3.07805 -0.592538
upperneck 23.9146 -3.68243 -1.06455
head 13.2578 -1.80602 -1.0597
rclavicle 3.97569e-016 -2.22639e-014
rhumerus -25.7523 20.9677 -87.2772
rradius 121.319
rwrist -22.4139
rhand -27.7487 -14.041
rfingers 7.12502
rthumb -1.14316 -44.0177
lclavicle 3.97569e-016 -2.22639e-014
lhumerus -104.066 -19.5126 106.645
lradius 102.08
lwrist 25.3353
lhand -35.8059 -31.1893
lfingers 7.12502
lthumb -8.9225 -1.39796
rfemur 26.1885 5.09293 19.3673
rtibia 18.5728
rfoot -174.678 -184.735
rtoes 19.3167
lfemur -34.64 9.56675 -14.243
ltibia 38.8807
lfoot -183.509 188.712
ltoes -9.29615
183
root 18.4923 18.0932 -1.75266 -16.7715 77.7491 -21.1267
lowerback 13.4329 8.11793 7.32974
upperback 0.175788 11.9682 0.494722
thorax -5.866 5.6802 -5.54122
lowerneck -31.8025 -3.24551 -0.900233
upperneck 24.1573 -3.90539 -0.640449
head 13.3909 -1.86394 -0.892222
rclavicle 5.52621e-014 -1.47101e-014
rhumerus -26.5876 21.412 -87.2975
rradius 122.202
rwrist -22.5877
rhand -27.212 -13.5779
rfingers 7.12502
rthumb -0.624818 -43.5568
lclavicle 5.52621e-014 -1.47101e-014
lhumerus -104.277 -19.6207 106.497
lradius 102.759
lwrist 25.1139
lhand -35.6696 -31.381
lfingers 7.12502
lthumb -8.79093 -1.58405
rfemur 26.5042 6.06995 20.0188
rtibia 21.3399
rfoot -175.936 -187.202
rtoes 18.9213
lfemur -33.2203 9.28848 -14.1645
ltibia 33.3579
lfoot -182.639 188.483
ltoes -9.62146
184
root 18.9873 18.1275 -1.75591 -15.4489 77.617 -19.8582
lowerback 13.1049 8.32703 6.77962
upperback 0.118439 12.1256 0.338996
thorax -5.80155 5.7743 -5.38694
lowerneck -31.7623 -3.40008 -1.02876
upperneck 24.3105 -4.1461 -0.38111
head 13.457 -1.93843 -0.818587
rclavicle -3.61788e-014 0
rhumerus -27.4622 21.8026 -87.4704
rradius 122.953
rwrist -22.5478
rhand -26.6672 -13.6203
rfingers 7.12502
rthumb -0.0986216 -43.6
lclavicle -3.61788e-014 0
lhumerus -104.488 -19.7294 106.26
lradius 103.527
lwrist 24.9754
lhand -35.6142 -31.4217
lfingers 7.12502
lthumb -8.73748 -1.62254
rfemur 26.3711 6.81268 19.9768
rtibia 24.5812
rfoot -176.772 -188.94
rtoes 19.3342
lfemur -31.9832 9.34555 -14.3351
ltibia 28.1973
lfoot -182.035 188.482
ltoes -7.69121
